<svg width="1600" height="1200" xmlns="http://www.w3.org/2000/svg">
    <g>
        <title>Background</title>
        <path id="svg_27" d="m107.50018,260.00009l234.99974,-47.50014l447.49989,132.49997l-682.49963,-84.99983z" fill-opacity="null" stroke-opacity="null" stroke-width="5" stroke="#545454" fill="none"/>
        <path id="svg_28" d="m60.00019,312.50007l709.99962,47.49984l-547.49986,339.99991l-162.49976,-387.49975z" fill-opacity="null" stroke-opacity="null" stroke-width="5" stroke="#545454" fill="none"/>
        <path id="svg_29" d="m800,372.50006l-550.00006,362.49976l992.49975,114.99997l-442.49969,-477.49973z" fill-opacity="null" stroke-opacity="null" stroke-width="5" stroke="#545454" fill="none"/>
        <path id="svg_30" d="m1284.99988,824.99994l-455.00008,-460.00003l719.99982,147.49996l-264.99974,312.50007z" fill-opacity="null" stroke-opacity="null" stroke-width="5" stroke="#545454" fill="none"/>
        <path id="svg_31" d="m477.50009,217.5001l454.99968,57.49983l-109.99997,54.99999l-344.99971,-112.49982z" fill-opacity="null" stroke-opacity="null" stroke-width="5" stroke="#545454" fill="none"/>
        <path id="svg_32" d="m854.99998,345.00006l664.99964,122.49982l-562.49986,-184.99996l-102.49978,62.50014z" fill-opacity="null" stroke-opacity="null" stroke-width="5" stroke="#545454" fill="none"/>
        <path id="svg_34" d="m92.50018,275.00008l289.99972,-67.50013l422.49989,132.49997l-712.49962,-64.99983z" fill-opacity="null" stroke-opacity="null" stroke-width="5" stroke="#545454" fill="none"/>
        <path id="svg_35" d="m50.00019,332.50007l719.99962,17.49984l-574.99986,339.99991l-144.99976,-357.49976z" fill-opacity="null" stroke-opacity="null" stroke-width="5" stroke="#545454" fill="none"/>
        <path id="svg_36" d="m272.50013,752.49996l542.49966,-380.00005l407.4999,489.99988l-949.99956,-109.99982z" fill-opacity="null" stroke-opacity="null" stroke-width="5" stroke="#545454" fill="none"/>
        <path id="svg_37" d="m1312.49987,817.49994l-472.50008,-465.00003l712.49982,184.99995l-239.99974,280.00008z" fill-opacity="null" stroke-opacity="null" stroke-width="5" stroke="#545454" fill="none"/>
        <path id="svg_38" d="m510.00007,210.0001l294.99972,124.99982l114.99997,-72.49998l-409.9997,-52.49984z" fill-opacity="null" stroke-opacity="null" stroke-width="5" stroke="#545454" fill="none"/>
        <path id="svg_39" d="m1509.99982,480.00003l-522.50007,-197.5001l-97.49998,54.99999l620.00004,142.50011z" fill-opacity="null" stroke-opacity="null" stroke-width="5" stroke="#545454" fill="none"/>
        <path id="svg_40" d="m260.00014,787.49995l969.99956,104.99982l0,359.99991l-984.99975,-69.99998l15.0002,-394.99975z" fill-opacity="null" stroke-opacity="null" stroke-width="5" stroke="#545454" fill="none"/>
        <path id="svg_41" d="m275.00013,817.49994l932.49956,57.49984l-5,529.99987l-947.49976,-169.99996l20.0002,-417.49975z" fill-opacity="null" stroke-opacity="null" stroke-width="5" stroke="#545454" fill="none"/>
        <path id="svg_42" d="m65.00019,425.00004l137.49976,339.99976l-19.99999,507.49987l-112.49997,-194.99995l-4.9998,-652.49969z" fill-opacity="null" stroke-opacity="null" stroke-width="5" stroke="#545454" fill="none"/>
        <path id="svg_43" d="m52.50019,395.00005l-5.0002,627.49969l122.49997,197.49995l24.99999,-507.49987l-142.49976,-317.49977z" fill-opacity="null" stroke-opacity="null" stroke-width="5" stroke="#545454" fill="none"/>
        <path id="svg_44" d="m1287.49988,879.99993l4.9998,474.99973l257.49994,-379.9999l2.5,-399.9999l-264.99974,305.00007z" fill-opacity="null" stroke-opacity="null" stroke-width="5" stroke="#545454" fill="none"/>
        <path id="svg_45" d="m1314.99987,892.49993l254.99974,-307.50007l-39.99999,454.99989l-187.49995,284.99993l-27.4998,-432.49974z" fill-opacity="null" stroke-opacity="null" stroke-width="5" stroke="#545454" fill="none"/>
    </g>
</svg>